<svg xmlns="http://www.w3.org/2000/svg" viewBox="0 0 500 700">
  <defs>
    <linearGradient id="gold" x1="0%" y1="0%" x2="100%" y2="100%"><stop offset="0%" stop-color="#c9ad60"/><stop offset="50%" stop-color="#e8d898"/><stop offset="100%" stop-color="#a88830"/></linearGradient>
    <linearGradient id="olive" x1="0%" y1="0%" x2="100%" y2="100%"><stop offset="0%" stop-color="#7d8f50"/><stop offset="100%" stop-color="#556a30"/></linearGradient>
    <linearGradient id="olive2" x1="0%" y1="0%" x2="100%" y2="100%"><stop offset="0%" stop-color="#8f9f60"/><stop offset="100%" stop-color="#667a40"/></linearGradient>
    <linearGradient id="bg" x1="0%" y1="0%" x2="0%" y2="100%"><stop offset="0%" stop-color="#fefcfa"/><stop offset="100%" stop-color="#f6f2e8"/></linearGradient>
  </defs>
  <rect width="500" height="700" fill="url(#bg)"/>
  <rect x="24" y="24" width="452" height="652" fill="none" stroke="url(#gold)" stroke-width="1.5"/>
  <g transform="translate(28,28)"><path d="M0,38 C0,12 12,0 38,0" fill="none" stroke="url(#gold)" stroke-width="1.5"/></g>
  <g transform="translate(472,28) scale(-1,1)"><path d="M0,38 C0,12 12,0 38,0" fill="none" stroke="url(#gold)" stroke-width="1.5"/></g>
  <g transform="translate(28,672) scale(1,-1)"><path d="M0,38 C0,12 12,0 38,0" fill="none" stroke="url(#gold)" stroke-width="1.5"/></g>
  <g transform="translate(472,672) scale(-1,-1)"><path d="M0,38 C0,12 12,0 38,0" fill="none" stroke="url(#gold)" stroke-width="1.5"/></g>
  <text x="250" y="100" text-anchor="middle" font-family="Georgia,serif" font-size="22" fill="#3a3a2a" letter-spacing="5">RÉSPONDEZ</text>
  <line x1="180" y1="118" x2="320" y2="118" stroke="url(#gold)" stroke-width="1"/>
  <text x="250" y="170" text-anchor="middle" font-family="Georgia,serif" font-size="14" fill="#5a5040" letter-spacing="1">
    <tspan x="250" dy="0">□ Accepts with pleasure</tspan>
    <tspan x="250" dy="36">□ Declines with regret</tspan>
  </text>
  <text x="250" y="270" text-anchor="middle" font-family="Georgia,serif" font-size="12" fill="#8a7a58" letter-spacing="1">
    <tspan x="250" dy="0">Name(s): ______________</tspan>
    <tspan x="250" dy="30">Meal: _________________</tspan>
    <tspan x="250" dy="30">Song request: __________</tspan>
  </text>
  <text x="250" y="420" text-anchor="middle" font-family="Georgia,serif" font-size="10" fill="#b8a888" letter-spacing="2">Kindly reply by August 15th, 2026</text>
  <text x="250" y="620" text-anchor="middle" font-family="Georgia,serif" font-size="8" fill="#c0b090" letter-spacing="4">LUXE TEMPLATES</text>
</svg>
