<svg xmlns="http://www.w3.org/2000/svg" viewBox="0 0 700 500">
  <defs>
    <linearGradient id="gold" x1="0%" y1="0%" x2="100%" y2="100%"><stop offset="0%" stop-color="#c9ad60"/><stop offset="50%" stop-color="#e8d898"/><stop offset="100%" stop-color="#a88830"/></linearGradient>
    <radialGradient id="vignette" cx="50%" cy="50%" r="70%"><stop offset="0%" stop-color="#fefcfa"/><stop offset="100%" stop-color="#f2ead8"/></radialGradient>
  </defs>
  <rect width="700" height="500" fill="url(#vignette)"/>
  <rect x="24" y="24" width="652" height="452" fill="none" stroke="url(#gold)" stroke-width="2"/>
  <g transform="translate(30,30)"><path d="M0,50 C0,18 18,0 50,0" fill="none" stroke="url(#gold)" stroke-width="1.5"/></g>
  <g transform="translate(670,30) scale(-1,1)"><path d="M0,50 C0,18 18,0 50,0" fill="none" stroke="url(#gold)" stroke-width="1.5"/></g>
  <g transform="translate(30,470) scale(1,-1)"><path d="M0,50 C0,18 18,0 50,0" fill="none" stroke="url(#gold)" stroke-width="1.5"/></g>
  <g transform="translate(670,470) scale(-1,-1)"><path d="M0,50 C0,18 18,0 50,0" fill="none" stroke="url(#gold)" stroke-width="1.5"/></g>
  <text x="350" y="100" text-anchor="middle" font-family="Georgia,serif" font-size="18" fill="#3a3a2a" letter-spacing="6">THE DETAILS</text>
  <line x1="270" y1="118" x2="430" y2="118" stroke="url(#gold)" stroke-width="1"/>
  <g transform="translate(130,165)" font-family="Georgia,serif" font-size="13">
    <text x="0" y="0" fill="#8a8050" letter-spacing="3" text-anchor="end">CEREMONY</text><text x="24" y="0" fill="#5a5040">Four o'clock in the afternoon</text>
    <text x="0" y="30" fill="#8a8050" letter-spacing="3" text-anchor="end">VENUE</text><text x="24" y="30" fill="#5a5040">The Ashford Estate</text>
    <text x="0" y="60" fill="#8a8050" letter-spacing="3" text-anchor="end">ADDRESS</text><text x="24" y="60" fill="#5a5040">12 Ocean Drive, Newport, RI</text>
    <text x="0" y="90" fill="#8a8050" letter-spacing="3" text-anchor="end">ATTIRE</text><text x="24" y="90" fill="#5a5040">Black tie</text>
    <text x="0" y="120" fill="#8a8050" letter-spacing="3" text-anchor="end">PARKING</text><text x="24" y="120" fill="#5a5040">Complimentary valet</text>
    <text x="0" y="150" fill="#8a8050" letter-spacing="3" text-anchor="end">HOTELS</text><text x="24" y="150" fill="#5a5040">Blocks available at The Chanler &amp; Forty 1° North</text>
    <text x="0" y="180" fill="#8a8050" letter-spacing="3" text-anchor="end">WEBSITE</text><text x="24" y="180" fill="#5a5040">emilyandjames.wedding</text>
  </g>
</svg>
