<svg xmlns="http://www.w3.org/2000/svg" viewBox="0 0 400 280">
  <defs>
    <linearGradient id="gold" x1="0%" y1="0%" x2="100%" y2="100%"><stop offset="0%" stop-color="#c9ad60"/><stop offset="50%" stop-color="#e8d898"/><stop offset="100%" stop-color="#a88830"/></linearGradient>
    <linearGradient id="bg" x1="0%" y1="0%" x2="0%" y2="100%"><stop offset="0%" stop-color="#fefcfa"/><stop offset="100%" stop-color="#f6f2e8"/></linearGradient>
  </defs>
  <rect width="400" height="280" fill="url(#bg)"/>
  <rect x="16" y="16" width="368" height="248" fill="none" stroke="url(#gold)" stroke-width="1.5"/>
  <g transform="translate(20,20)"><path d="M0,30 C0,10 10,0 30,0" fill="none" stroke="url(#gold)" stroke-width="1"/></g>
  <g transform="translate(380,20) scale(-1,1)"><path d="M0,30 C0,10 10,0 30,0" fill="none" stroke="url(#gold)" stroke-width="1"/></g>
  <g transform="translate(20,260) scale(1,-1)"><path d="M0,30 C0,10 10,0 30,0" fill="none" stroke="url(#gold)" stroke-width="1"/></g>
  <g transform="translate(380,260) scale(-1,-1)"><path d="M0,30 C0,10 10,0 30,0" fill="none" stroke="url(#gold)" stroke-width="1"/></g>
  <text x="200" y="105" text-anchor="middle" font-family="Georgia,serif" font-size="44" fill="url(#gold)" letter-spacing="3">03</text>
  <text x="200" y="158" text-anchor="middle" font-family="Georgia,serif" font-size="22" fill="#3a3a2a" letter-spacing="2" font-style="italic">Ms. Chen</text>
  <text x="200" y="230" text-anchor="middle" font-family="Georgia,serif" font-size="7" fill="#c0b090" letter-spacing="3">LUXE TEMPLATES</text>
</svg>
