<svg xmlns="http://www.w3.org/2000/svg" viewBox="0 0 400 300">
  <defs>
    <linearGradient id="gold" x1="0%" y1="0%" x2="100%" y2="100%"><stop offset="0%" stop-color="#c9ad60"/><stop offset="50%" stop-color="#e8d898"/><stop offset="100%" stop-color="#a88830"/></linearGradient>
    <radialGradient id="vignette" cx="50%" cy="50%" r="70%"><stop offset="0%" stop-color="#fefcfa"/><stop offset="100%" stop-color="#f2ead8"/></radialGradient>
  </defs>
  <rect width="400" height="300" fill="url(#vignette)"/>
  <rect x="14" y="14" width="372" height="272" fill="none" stroke="url(#gold)" stroke-width="2"/>
  <g transform="translate(18,18)"><path d="M0,35 C0,12 12,0 35,0" fill="none" stroke="url(#gold)" stroke-width="1.5"/></g>
  <g transform="translate(382,18) scale(-1,1)"><path d="M0,35 C0,12 12,0 35,0" fill="none" stroke="url(#gold)" stroke-width="1.5"/></g>
  <g transform="translate(18,282) scale(1,-1)"><path d="M0,35 C0,12 12,0 35,0" fill="none" stroke="url(#gold)" stroke-width="1.5"/></g>
  <g transform="translate(382,282) scale(-1,-1)"><path d="M0,35 C0,12 12,0 35,0" fill="none" stroke="url(#gold)" stroke-width="1.5"/></g>
  <text x="200" y="120" text-anchor="middle" font-family="Georgia,serif" font-size="52" fill="url(#gold)" letter-spacing="4">03</text>
  <text x="200" y="180" text-anchor="middle" font-family="Georgia,serif" font-size="26" fill="#3a3a2a" letter-spacing="2" font-style="italic">Ms. Chen</text>
</svg>
